{"title":"Vendetta.2015.BRRiP.XViD.AC3.5.1.ReLeNTLesS","uid":12209756,"size":1173190215,"categoryP":"video","categoryS":"movies","magnet":"?xt=urn:btih:4de9b2fa79bb8816332fa19e237f72ebf7cffc69&amp;dn=Vendetta.2015.BRRiP.XViD.AC3.5.1.ReLeNTLesS&amp;tr=udp%3A%2F%2Ftracker.openbittorrent.com%3A80&amp;tr=udp%3A%2F%2Fopen.demonii.com%3A1337&amp;tr=udp%3A%2F%2Ftracker.coppersurfer.tk%3A6969&amp;tr=udp%3A%2F%2Fexodus.desync.com%3A6969","seeders":0,"leechers":0,"uploader":"TvTeam","files":4,"time":1439061798,"description":"------------------------------------------------------------------------\n\n &lt;a href=&quot; https://www.torrenting.com&quot; rel=&quot;nofollow&quot; target=&quot;_NEW&quot;&gt; https://www.torrenting.com&lt;/a&gt;\n\nSign up is OPEN - for time being. Come and have fun\n\n.......................................................................................................................P0STER\n[img]http://i.imgur.com/i4ZI5rw.png[/img]\n\niMDB: http://www.imdb.com/title/tt3746298/\n\nGeneral\nComplete name               : Vendetta.2015.BRRiP.XViD.AC3.5.1.ReLeNTLesS.avi\nFormat                      : AVI\nFormat/Info                 : Audio Video Interleave\nFile size                   : 1.08 GiB\nDuration                    : 1h 30mn\nOverall bit rate            : 1 708 Kbps\n\nVideo\nID                          : 0\nFormat                      : MPEG-4 Visual\nFormat profile              : Advanced Simple@L5\nFormat settings, BVOP       : 1\nFormat settings, QPel       : No\nFormat settings, GMC        : No warppoints\nFormat settings, Matrix     : Default (H.263)\nMuxing mode                 : Packed bitstream\nCodec ID                    : XVID\nCodec ID/Hint               : XviD\nDuration                    : 1h 30mn\nBit rate                    : 1 508 Kbps\nWidth                       : 720 pixels\nHeight                      : 400 pixels\nDisplay aspect ratio        : 16:9\nFrame rate                  : 23.976 fps\nColor space                 : YUV\nChroma subsampling          : 4:2:0\nBit depth                   : 8 bits\nScan type                   : Progressive\nCompression mode            : Lossy\nBits/(Pixel*Frame)          : 0.218\nStream size                 : 973 MiB (88%)\nWriting library             : XviD 1.2.1 (UTC 2008-12-04)\n\nAudio\nID                          : 1\nFormat                      : AC-3\nFormat/Info                 : Audio Coding 3\nMode extension              : CM (complete main)\nFormat settings, Endianness : Big\nCodec ID                    : 2000\nDuration                    : 1h 30mn\nBit rate mode               : Constant\nBit rate                    : 192 Kbps\nChannel(s)                  : 6 channels\nChannel positions           : Front: L C R, Side: L R, LFE\nSampling rate               : 48.0 KHz\nCompression mode            : Lossy\nStream size                 : 124 MiB (11%)\nAlignment                   : Aligned on interleaves\nInterleave, duration        : 64 ms (1.53 video frames)\nInterleave, preload duratio : 192 ms\nTitle                       : Vendetta.2015.ReLeNTLesS.audio.AC3.5.1.English\nSample Included             : Yes\nSource                      : ROVERS Thanks\n\nPL0T\nA detective pushed beyond his limits will stop at nothing for vengeance. When his wife is killed by a criminal that he put away, Mason, a hard-nosed detective, deliberately gets arrested in order to get revenge. While inside, Mason discovers a new criminal enterprise that those behind it would kill to protect.\n\nCAST\nDirectors: Jen Soska, Sylvia Soska\nWriter: Justin Shady\nStars: Dean Cain, Paul Wight, Michael Eklund\n\nN0TE\nSharpend, Tweeked colors etc, did audio and muxed.\n\nSCREENS\n[img]http://i.imgur.com/08myOXn.png[/img]\n[img]http://i.imgur.com/NYJkxGX.png[/img]\n[img]http://i.imgur.com/C0Vpt0o.png[/img]\n[img]http://i.imgur.com/gjk2WYO.png[/img]\n[img]http://i.imgur.com/VR3JovM.png[/img]\n[img]http://i.imgur.com/VR3JovM.png[/img]\n\nTRAiLER\nGREETZ\n\n\nHIVE-CM8, Blackjesus, M0RPH, M00SE, MiLLENiUM,\n\nMANiX, TiTAN, Anonymous, TuX, \n\nACAB, KingStoner, FooKas, 4PlayHD, \n\nGodFather, Cld.... \n\nKeep up the good work guyz","torrent":{"xt":"urn:btih:4de9b2fa79bb8816332fa19e237f72ebf7cffc69","amp;dn":"Vendetta.2015.BRRiP.XViD.AC3.5.1.ReLeNTLesS","amp;tr":["udp%3A%2F%2Ftracker.openbittorrent.com%3A80","udp%3A%2F%2Fopen.demonii.com%3A1337","udp%3A%2F%2Ftracker.coppersurfer.tk%3A6969","udp%3A%2F%2Fexodus.desync.com%3A6969"],"infoHash":"4de9b2fa79bb8816332fa19e237f72ebf7cffc69","infoHashBuffer":{"type":"Buffer","data":[77,233,178,250,121,187,136,22,51,47,161,158,35,127,114,235,247,207,252,105]},"announce":[],"urlList":[]}}